<svg width="730" height="365" viewBox="0 0 730 365" fill="none" xmlns="http://www.w3.org/2000/svg">
<path d="M32.9131 215.141V199.941H46.3115V215.141H32.9131Z" fill="black"/>
<path d="M0 164.102V0H2.69104L26.8039 195.834L0 164.102Z" fill="black"/>
<path d="M44.9826 180.95L6.10938 0H76.7749L44.9826 180.95Z" fill="black"/>
<path d="M47.5815 182.989L79.7324 0H151.05L47.5815 182.989Z" fill="black"/>
<path d="M64.9507 196.281L151.458 7.37769V205.334L64.9507 196.281Z" fill="black"/>
<path d="M68.4463 224.344L151.458 213.778V353.935L68.4463 224.344Z" fill="black"/>
<path d="M50.3657 244.689L150.979 363.633H74.0967L50.3657 244.689Z" fill="black"/>
<path d="M46.4788 240.095L71.1262 363.633H8.75879L46.4788 240.095Z" fill="black"/>
<path d="M25.8132 236.196L4.21297 363.633H0V278.714L25.8132 236.196Z" fill="black"/>
<path d="M27.1343 228.401L0 273.095V221.85L27.1343 228.401Z" fill="black"/>
<path d="M26.248 199.697L0 210.93V168.623L26.248 199.697Z" fill="black"/>
<path fill-rule="evenodd" clip-rule="evenodd" d="M638.579 292.547H661.511V194.936H707.231V292.547H730V31.7838C730 15.3103 707.856 0.0511425 685.23 0.000121149C662.151 -0.0499449 638.579 15.4257 638.579 31.5052V292.547ZM661.511 166.104C661.511 167.777 661.511 169.115 661.511 170.068L706.9 170.069V61.8254C706.9 61.5119 706.9 61.0413 706.9 60.4417C706.903 53.9712 706.907 32.4892 706.812 31.5441C706.45 14.7347 663.248 16.1632 662.484 31.5003C661.471 39.3887 661.503 140.878 661.511 166.104Z" fill="black"/>
<path d="M603.226 78.4024C596.628 78.2251 590.028 78.0478 583.43 77.8708C583.43 67.4873 583.43 57.1058 583.43 46.7225C583.391 16.5175 543.008 18.1025 542.144 46.6556C542.188 61.8432 542.23 77.0302 542.275 92.2177C563.46 125.869 584.645 159.52 605.832 193.171V217.082C605.832 231.428 605.832 245.773 605.83 260.121C592.547 309.003 522.609 297.314 522.87 260.121L522.748 216.434L541.3 216.476L542.619 252.251C542.712 275.889 584.742 274.823 584.314 252.237C584.323 234.561 584.332 216.887 584.343 199.211L519.875 99.6557V32.7074C519.594 20.6647 531.123 1.25632 564.031 0.0309328C587.669 -0.849116 602.642 17.2176 603.226 32.7074V78.4024Z" fill="black"/>
<path d="M442.523 3.57715L420.245 3.73079L422.227 291.992L507.791 291.403L507.592 262.461L444.305 262.897L442.523 3.57715Z" fill="black"/>
<path fill-rule="evenodd" clip-rule="evenodd" d="M387.785 249.857V46.6953C387.785 22.4932 365.311 0.0751359 342.346 0.000177987C318.924 -0.0733764 295 22.6625 295 46.286C295 46.286 295.001 213.324 295 249.857C294.999 286.39 321.505 293.046 342.346 292.519C362.53 292.01 387.785 290.466 387.785 249.857ZM319.261 46.2786C320.036 23.7461 363.885 21.6474 364.25 46.343C364.349 47.7316 364.343 79.2918 364.342 88.7978V90.8309C364.342 90.8309 364.342 228.75 364.342 249.857C364.34 270.965 318.278 270.965 318.274 249.855C318.274 245.951 318.273 243.377 318.273 241.757C318.264 201.254 318.254 57.6438 319.261 46.2786Z" fill="black"/>
<path fill-rule="evenodd" clip-rule="evenodd" d="M171.925 0V292.547H196.829V171.02H211.977C214.507 171.02 217.236 171.811 220.15 173.379C223.064 174.947 225.792 176.917 228.322 179.277C230.852 181.636 232.946 184.244 234.597 187.092C236.249 189.939 237.078 192.652 237.078 195.201V292.547H261.981V195.737C261.981 191.804 261.386 187.771 260.231 183.646C259.061 179.475 257.36 175.584 255.122 171.948C252.886 168.31 250.161 165.165 246.95 162.511C243.74 159.856 240.188 157.94 236.296 156.76C243.886 153.614 250.068 148.596 254.83 141.72C259.592 134.844 261.981 127.122 261.981 118.668V62.2743C261.981 4.24438 245.895 0 216.064 0H171.925ZM209.35 24.8644H197.121V143.792H212.853C215.759 143.792 218.648 143.001 221.463 141.434C224.278 139.867 226.806 137.831 229.051 135.339C231.272 132.874 233.139 130.177 234.597 127.229C236.056 124.281 236.786 121.415 236.786 118.627V45.4482C236.786 27.5373 222.339 24.8644 209.35 24.8644Z" fill="black"/>
<path d="M710.898 323.511C710.84 321.702 713.186 318.714 720.014 318.525C724.902 318.391 727.972 321.163 728.092 323.514V330.509L724.132 330.43V325.679C724.13 324.491 723.593 323.612 722.781 323.034C721.971 322.456 720.894 322.182 719.816 322.197C717.66 322.227 715.466 323.411 715.375 325.666H715.373L715.375 325.669C715.378 326.787 715.383 327.906 715.388 329.023C715.392 330.254 715.396 331.486 715.402 332.717V332.739L715.417 332.757L728.636 348.353V358.677C727.263 362.408 722.981 363.835 719.027 363.61C717.048 363.499 715.161 362.972 713.775 362.121C712.39 361.269 711.507 360.097 711.522 358.687L711.496 351.997L715.201 352.004L715.473 357.471C715.479 358.412 716.047 359.107 716.887 359.561C717.726 360.013 718.835 360.229 719.937 360.218C721.038 360.207 722.139 359.971 722.963 359.513C723.789 359.054 724.339 358.368 724.315 357.466L724.321 349.265V349.243L724.305 349.225L710.898 333.844V323.511Z" fill="black" stroke="black" stroke-width="0.1"/>
<path d="M649.88 318.521H633.304V321.938L638.829 323.305V358.848L633.304 360.215V363.633H649.88V360.215L644.355 358.848V323.305L649.88 321.938V318.521Z" fill="black" stroke="black" stroke-width="0.1"/>
<path d="M598.368 339.622V344.958H607.862V357.629C607.862 357.629 602.092 359.358 598.368 358.962C591.865 358.27 585.483 355.627 584.127 350.293C582.771 344.958 582.575 339.878 583.449 335.621C584.322 331.364 588.196 326.285 591.587 324.951C596.039 323.2 599.065 322.823 603.793 323.617C606.848 324.131 611.251 326.285 611.251 326.285L613.286 320.95C613.286 320.95 607.571 319.255 603.793 318.95C597.69 318.456 595.655 317.912 590.23 320.283C584.805 322.654 581.414 324.951 579.38 329.62C577.345 334.288 576.667 337.905 576.667 341.623C576.667 345.34 577.345 350.293 578.702 352.293C582.575 358.006 583.449 359.629 589.552 362.296C592.89 363.755 601.759 363.63 603.793 363.63C605.826 363.63 613.964 361.63 613.964 361.63V339.622H598.368Z" fill="black" stroke="black" stroke-width="0.1"/>
<path fill-rule="evenodd" clip-rule="evenodd" d="M450.827 358.176C451.323 357.867 451.626 357.492 451.626 357.049V343.567V335.901V333.447V332.766V332.589V332.542V332.531V332.527V332.214C451.626 332.086 451.626 331.931 451.626 331.756C451.626 330.931 451.626 329.648 451.623 328.471C451.62 327.758 451.618 327.082 451.612 326.574C451.609 326.318 451.607 326.105 451.602 325.948C451.601 325.87 451.6 325.805 451.597 325.756C451.596 325.714 451.593 325.68 451.59 325.661C451.57 325.158 451.272 324.73 450.785 324.376C450.298 324.02 449.613 323.73 448.803 323.505C447.177 323.051 445.027 322.843 442.874 322.862C440.721 322.883 438.559 323.13 436.917 323.591C436.095 323.822 435.399 324.108 434.898 324.447C434.399 324.784 434.081 325.185 434.04 325.647C433.99 325.875 433.947 326.418 433.911 327.196C433.874 327.982 433.842 329.017 433.815 330.227C433.76 332.648 433.724 335.775 433.7 339.044C433.654 345.558 433.655 352.631 433.657 355.77L451.626 332.214L433.657 355.771V355.774V355.793V355.801V355.805V355.831V355.837V355.838V355.839V355.846V357.049C433.658 357.492 433.961 357.865 434.456 358.176C434.953 358.486 435.657 358.743 436.496 358.947C438.175 359.355 440.41 359.559 442.642 359.559C444.874 359.559 447.109 359.355 448.788 358.947C449.627 358.743 450.331 358.486 450.827 358.176ZM455.146 320.788C451.869 319.461 447.48 318.594 443.043 318.589C438.518 318.583 433.945 319.456 430.505 320.783C428.784 321.446 427.35 322.222 426.349 323.056C425.346 323.893 424.785 324.777 424.785 325.658V325.659V325.663V325.677V325.732V325.949V326.776V329.771V339.241V357.049C424.785 358.434 425.414 359.536 426.489 360.413C427.566 361.291 429.09 361.942 430.872 362.416C434.436 363.365 439.011 363.601 443.043 363.56C446.951 363.521 451.339 363.442 454.752 362.591C456.456 362.167 457.911 361.551 458.938 360.657C459.963 359.766 460.564 358.595 460.564 357.049V357.012V356.975V356.938V356.9V356.861V356.822V356.783V356.743V356.702V356.662V356.621V356.579V356.537V356.496V356.452V356.409V356.366V356.322V356.277V356.233V356.188V356.141V356.096V356.05V356.003V355.956V355.909V355.861V355.813V355.764V355.715V355.666V355.617V355.566V355.515V355.465V355.414V355.362V355.31V355.258V355.206V355.153V355.1V355.047V354.993V354.939V354.884V354.829V354.773V354.718V354.662V354.606V354.549V354.493V354.435V354.378V354.319V354.262V354.203V354.144V354.085V354.025V353.967V353.906V353.845V353.785V353.723V353.663V353.602V353.539V353.477V353.414V353.351V353.289V353.226V353.161V353.098V353.034V352.97V352.904V352.84V352.774V352.709V352.643V352.578V352.511V352.444V352.377V352.31V352.243V352.176V352.107V352.039V351.971V351.902V351.834V351.764V351.695V351.625V351.555V351.485V351.416V351.345V351.273V351.202V351.131V351.06V350.989V350.917V350.844V350.773V350.701V350.627V350.554V350.482V350.408V350.334V350.26V350.187V350.113V350.039V349.964V349.889V349.815V349.74V349.664V349.588V349.513V349.438V349.361V349.284V349.209V349.133V349.056V348.978V348.902V348.825V348.747V348.669V348.591V348.515V348.437V348.358V348.28V348.202V348.122V348.045V347.965V347.886V347.807V347.727V347.648V347.569V347.489V347.41V347.33V347.25V347.17V347.089V347.008V346.929V346.848V346.766V346.686V346.605V346.524V346.442V346.362V346.28V346.199V346.117V346.035V345.954V345.872V345.79V345.708V345.626V345.544V345.461V345.379V345.297V345.215V345.131V345.049V344.966V344.884V344.801V344.717V344.635V344.552V344.468V344.385V344.302V344.22V344.136V344.053V343.969V343.886V343.803V343.718V343.634V343.551V343.468V343.384V343.301V343.216V343.133V343.049V342.965V342.881V342.798V342.713V342.63V342.546V342.462V342.378V342.295V342.21V342.127V342.042V341.958V341.875V341.79V341.707V341.624V341.539V341.455V341.371V341.287V341.204V341.12V341.036V340.952V340.869V340.784V340.701V340.617V340.534V340.451V340.367V340.284V340.2V340.117V340.034V339.95V339.867V339.783V339.7V339.617V339.535V339.451V339.368V339.286V339.202V339.12V339.037V338.955V338.872V338.79V338.708V338.626V338.544V338.46V338.378V338.298V338.215V338.133V338.051V337.969V337.889V337.807V337.726V337.645V337.563V337.483V337.402V337.321V337.241V337.16V337.079V336.999V336.92V336.839V336.76V336.68V336.6V336.52V336.441V336.362V336.282V336.203V336.125V336.046V335.968V335.889V335.811V335.733V335.655V335.577V335.499V335.423V335.345V335.268V335.19V335.114V335.037V334.961V334.884V334.809V334.732V334.657V334.581V334.505V334.43V334.355V334.28V334.206V334.131V334.057V333.983V333.909V333.836V333.762V333.688V333.615V333.542V333.469V333.397V333.324V333.253V333.181V333.11V333.039V332.967V332.896V332.825V332.754V332.684V332.615V332.545V332.475V332.406V332.337V332.268V332.199V332.131V332.062V331.995V331.927V331.86V331.793V331.726V331.659V331.594V331.527V331.461V331.395V331.331V331.265V331.201V331.137V331.073V331.008V330.946V330.881V330.818V330.756V330.694V330.631V330.57V330.508V330.447V330.386V330.325V330.265V330.205V330.144V330.086V330.027V329.968V329.909V329.851V329.793V329.736V329.678V329.622V329.565V329.509V329.453V329.397V329.342V329.287V329.233V329.178V329.125V329.071V329.018V328.965V328.913V328.861V328.809V328.757V328.706V328.656V328.605V328.555V328.505V328.456V328.407V328.359V328.311V328.263V328.216V328.169V328.123V328.076V328.03V327.985V327.939V327.894V327.851V327.807V327.763V327.719V327.677V327.635V327.594V327.551V327.51V327.469V327.43V327.39V327.35V327.312V327.272V327.234V327.197V327.16V327.123V327.086V327.051V327.015V326.98V326.944V326.91V326.877V326.843V326.81V326.777V326.746V326.715V326.683V326.653V326.623V326.593V326.563V326.534V326.507V326.478V326.451V326.423V326.397V326.371V326.345V326.321V326.296V326.272V326.248V326.225V326.203V326.181V326.16V326.138V326.117V326.098V326.078V326.058V326.041V326.021V326.004V325.987V325.971V325.955V325.939V325.924V325.909V325.896V325.882V325.868V325.856V325.845V325.833V325.822V325.812V325.803V325.793V325.785V325.777V325.769V325.762V325.755V325.749V325.744V325.74V325.736V325.732V325.729V325.726V325.722V325.721C460.564 324.816 460.036 323.918 459.088 323.074C458.142 322.232 456.785 321.453 455.146 320.788Z" fill="black"/>
<path d="M451.626 332.214V332.527M451.626 332.214L433.657 355.771V355.774V355.793M451.626 332.214L433.657 355.77C433.655 352.631 433.654 345.558 433.7 339.044C433.724 335.775 433.76 332.648 433.815 330.227C433.842 329.017 433.874 327.982 433.911 327.196C433.947 326.418 433.99 325.875 434.04 325.647C434.081 325.185 434.399 324.784 434.898 324.447C435.399 324.108 436.095 323.822 436.917 323.591C438.559 323.13 440.721 322.883 442.874 322.862C445.027 322.843 447.177 323.051 448.803 323.505C449.613 323.73 450.298 324.02 450.785 324.376C451.272 324.73 451.57 325.158 451.59 325.661C451.593 325.68 451.596 325.714 451.597 325.756C451.6 325.805 451.601 325.87 451.602 325.948C451.607 326.105 451.609 326.318 451.612 326.574C451.618 327.082 451.62 327.758 451.623 328.471C451.626 329.648 451.626 330.931 451.626 331.756C451.626 331.931 451.626 332.086 451.626 332.214ZM451.626 332.527H451.593C451.605 332.527 451.613 332.527 451.619 332.527C451.626 332.527 451.626 332.527 451.626 332.527ZM451.626 332.527V332.531V332.542V332.589V332.766V333.447V335.901V343.567V357.049C451.626 357.492 451.323 357.867 450.827 358.176C450.331 358.486 449.627 358.743 448.788 358.947C447.109 359.355 444.874 359.559 442.642 359.559C440.41 359.559 438.175 359.355 436.496 358.947C435.657 358.743 434.953 358.486 434.456 358.176C433.961 357.865 433.658 357.492 433.657 357.049V355.846V355.839V355.838V355.837V355.831V355.805V355.801M433.657 355.801C433.657 355.798 433.657 355.796 433.657 355.793M433.657 355.801V355.793M424.785 357.049C424.785 358.434 425.414 359.536 426.489 360.413C427.566 361.291 429.09 361.942 430.872 362.416C434.436 363.365 439.011 363.601 443.043 363.56C446.951 363.521 451.339 363.442 454.752 362.591C456.456 362.167 457.911 361.551 458.938 360.657C459.963 359.766 460.564 358.595 460.564 357.049V357.012V356.975V356.938V356.9V356.861V356.822V356.783V356.743V356.702V356.662V356.621V356.579V356.537V356.496V356.452V356.409V356.366V356.322V356.277V356.233V356.188V356.141V356.096V356.05V356.003V355.956V355.909V355.861V355.813V355.764V355.715V355.666V355.617V355.566V355.515V355.465V355.414V355.362V355.31V355.258V355.206V355.153V355.1V355.047V354.993V354.939V354.884V354.829V354.773V354.718V354.662V354.606V354.549V354.493V354.435V354.378V354.319V354.262V354.203V354.144V354.085V354.025V353.967V353.906V353.845V353.785V353.723V353.663V353.602V353.539V353.477V353.414V353.351V353.289V353.226V353.161V353.098V353.034V352.97V352.904V352.84V352.774V352.709V352.643V352.578V352.511V352.444V352.377V352.31V352.243V352.176V352.107V352.039V351.971V351.902V351.834V351.764V351.695V351.625V351.555V351.485V351.416V351.345V351.273V351.202V351.131V351.06V350.989V350.917V350.844V350.773V350.701V350.627V350.554V350.482V350.408V350.334V350.26V350.187V350.113V350.039V349.964V349.889V349.815V349.74V349.664V349.588V349.513V349.438V349.361V349.284V349.209V349.133V349.056V348.978V348.902V348.825V348.747V348.669V348.591V348.515V348.437V348.358V348.28V348.202V348.122V348.045V347.965V347.886V347.807V347.727V347.648V347.569V347.489V347.41V347.33V347.25V347.17V347.089V347.008V346.929V346.848V346.766V346.686V346.605V346.524V346.442V346.362V346.28V346.199V346.117V346.035V345.954V345.872V345.79V345.708V345.626V345.544V345.461V345.379V345.297V345.215V345.131V345.049V344.966V344.884V344.801V344.717V344.635V344.552V344.468V344.385V344.302V344.22V344.136V344.053V343.969V343.886V343.803V343.718V343.634V343.551V343.468V343.384V343.301V343.216V343.133V343.049V342.965V342.881V342.798V342.713V342.63V342.546V342.462V342.378V342.295V342.21V342.127V342.042V341.958V341.875V341.79V341.707V341.624V341.539V341.455V341.371V341.287V341.204V341.12V341.036V340.952V340.869V340.784V340.701V340.617V340.534V340.451V340.367V340.284V340.2V340.117V340.034V339.95V339.867V339.783V339.7V339.617V339.535V339.451V339.368V339.286V339.202V339.12V339.037V338.955V338.872V338.79V338.708V338.626V338.544V338.46V338.378V338.298V338.215V338.133V338.051V337.969V337.889V337.807V337.726V337.645V337.563V337.483V337.402V337.321V337.241V337.16V337.079V336.999V336.92V336.839V336.76V336.68V336.6V336.52V336.441V336.362V336.282V336.203V336.125V336.046V335.968V335.889V335.811V335.733V335.655V335.577V335.499V335.423V335.345V335.268V335.19V335.114V335.037V334.961V334.884V334.809V334.732V334.657V334.581V334.505V334.43V334.355V334.28V334.206V334.131V334.057V333.983V333.909V333.836V333.762V333.688V333.615V333.542V333.469V333.397V333.324V333.253V333.181V333.11V333.039V332.967V332.896V332.825V332.754V332.684V332.615V332.545V332.475V332.406V332.337V332.268V332.199V332.131V332.062V331.995V331.927V331.86V331.793V331.726V331.659V331.594V331.527V331.461V331.395V331.331V331.265V331.201V331.137V331.073V331.008V330.946V330.881V330.818V330.756V330.694V330.631V330.57V330.508V330.447V330.386V330.325V330.265V330.205V330.144V330.086V330.027V329.968V329.909V329.851V329.793V329.736V329.678V329.622V329.565V329.509V329.453V329.397V329.342V329.287V329.233V329.178V329.125V329.071V329.018V328.965V328.913V328.861V328.809V328.757V328.706V328.656V328.605V328.555V328.505V328.456V328.407V328.359V328.311V328.263V328.216V328.169V328.123V328.076V328.03V327.985V327.939V327.894V327.851V327.807V327.763V327.719V327.677V327.635V327.594V327.551V327.51V327.469V327.43V327.39V327.35V327.312V327.272V327.234V327.197V327.16V327.123V327.086V327.051V327.015V326.98V326.944V326.91V326.877V326.843V326.81V326.777V326.746V326.715V326.683V326.653V326.623V326.593V326.563V326.534V326.507V326.478V326.451V326.423V326.397V326.371V326.345V326.321V326.296V326.272V326.248V326.225V326.203V326.181V326.16V326.138V326.117V326.098V326.078V326.058V326.041V326.021V326.004V325.987V325.971V325.955V325.939V325.924V325.909V325.896V325.882V325.868V325.856V325.845V325.833V325.822V325.812V325.803V325.793V325.785V325.777V325.769V325.762V325.755V325.749V325.744V325.74V325.736V325.732V325.729V325.726V325.722V325.721C460.564 324.816 460.036 323.918 459.088 323.074C458.142 322.232 456.785 321.453 455.146 320.788C451.869 319.461 447.48 318.594 443.043 318.589C438.518 318.583 433.945 319.456 430.505 320.783C428.784 321.446 427.35 322.222 426.349 323.056C425.346 323.893 424.785 324.777 424.785 325.658M424.785 357.049C424.785 354.233 424.785 346.385 424.785 339.241M424.785 357.049V339.241M424.785 339.241V329.771V326.776V325.949V325.732V325.677V325.663V325.659V325.658M424.785 325.658C424.785 325.658 424.785 325.658 424.718 325.658H424.785Z" stroke="black" stroke-width="0.1"/>
<path d="M489.118 318.521H482.735V363.633H508.98V357.573H489.118V318.521Z" fill="black" stroke="black" stroke-width="0.1"/>
<path fill-rule="evenodd" clip-rule="evenodd" d="M550.286 358.176C550.781 357.867 551.084 357.492 551.084 357.049V343.567V335.901V333.447V332.766V332.589V332.542V332.531V332.527V332.214C551.084 332.088 551.084 331.936 551.085 331.765C551.085 330.94 551.085 329.652 551.082 328.471C551.079 327.758 551.076 327.082 551.071 326.574C551.068 326.318 551.065 326.105 551.061 325.948C551.06 325.87 551.058 325.805 551.056 325.756C551.054 325.714 551.052 325.68 551.049 325.661C551.028 325.158 550.731 324.73 550.245 324.376C549.757 324.02 549.073 323.73 548.261 323.505C546.636 323.051 544.486 322.843 542.333 322.862C540.179 322.883 538.019 323.13 536.375 323.591C535.554 323.822 534.858 324.108 534.357 324.447C533.858 324.784 533.541 325.185 533.499 325.647C533.448 325.875 533.406 326.418 533.369 327.196C533.332 327.982 533.301 329.017 533.274 330.227C533.219 332.648 533.184 335.775 533.159 339.044C533.113 345.558 533.114 352.631 533.115 355.77L551.084 332.214L533.115 355.771V355.774V355.793V355.801V355.805V355.831V355.837V355.838V355.839V355.846L533.117 357.049C533.117 357.492 533.42 357.865 533.915 358.176C534.412 358.486 535.116 358.743 535.955 358.947C537.635 359.355 539.868 359.559 542.101 359.559C544.333 359.559 546.568 359.355 548.246 358.947C549.085 358.743 549.789 358.486 550.286 358.176ZM554.605 320.788C551.327 319.461 546.939 318.594 542.502 318.589C537.977 318.583 533.403 319.456 529.964 320.783C528.243 321.446 526.81 322.222 525.807 323.056C524.804 323.893 524.244 324.777 524.244 325.658V325.659V325.663V325.677V325.732V325.949V326.776V329.771V339.241V357.049C524.244 358.434 524.873 359.536 525.948 360.413C527.024 361.291 528.549 361.942 530.331 362.416C533.896 363.365 538.47 363.601 542.502 363.56C546.41 363.521 550.799 363.442 554.21 362.591C555.916 362.167 557.369 361.551 558.397 360.657C559.421 359.766 560.023 358.595 560.023 357.049V357.012V356.975V356.938V356.9V356.861V356.822V356.783V356.743V356.702V356.662V356.621V356.579V356.537V356.496V356.452V356.409V356.366V356.322V356.277V356.233V356.188V356.141V356.096V356.05V356.003V355.956V355.909V355.861V355.813V355.764V355.715V355.666V355.617V355.566V355.515V355.465V355.414V355.362V355.31V355.258V355.206V355.153V355.1V355.047V354.993V354.939V354.884V354.829V354.773V354.718V354.662V354.606V354.549V354.493V354.435V354.378V354.319V354.262V354.203V354.144V354.085V354.025V353.967V353.906V353.845V353.785V353.723V353.663V353.602V353.539V353.477V353.414V353.351V353.289V353.226V353.161V353.098V353.034V352.97V352.904V352.84V352.774V352.709V352.643V352.578V352.511V352.444V352.377V352.31V352.243V352.176V352.107V352.039V351.971V351.902V351.834V351.764V351.695V351.625V351.555V351.485V351.416V351.345V351.273V351.202V351.131V351.06V350.989V350.917V350.844V350.773V350.701V350.627V350.554V350.482V350.408V350.334V350.26V350.187V350.113V350.039V349.964V349.889V349.815V349.74V349.664V349.588V349.513V349.438V349.361V349.284V349.209V349.133V349.056V348.978V348.902V348.825V348.747V348.669V348.591V348.515V348.437V348.358V348.28V348.202V348.122V348.045V347.965V347.886V347.807V347.727V347.648V347.569V347.489V347.41V347.33V347.25V347.17V347.089V347.008V346.929V346.848V346.766V346.686V346.605V346.524V346.442V346.362V346.28V346.199V346.117V346.035V345.954V345.872V345.79V345.708V345.626V345.544V345.461V345.379V345.297V345.215V345.131V345.049V344.966V344.884V344.801V344.717V344.635V344.552V344.468V344.385V344.302V344.22V344.136V344.053V343.969V343.886V343.803V343.718V343.634V343.551V343.468V343.384V343.301V343.216V343.133V343.049V342.965V342.881V342.798V342.713V342.63V342.546V342.462V342.378V342.295V342.21V342.127V342.042V341.958V341.875V341.79V341.707V341.624V341.539V341.455V341.371V341.287V341.204V341.12V341.036V340.952V340.869V340.784V340.701V340.617V340.534V340.451V340.367V340.284V340.2V340.117V340.034V339.95V339.867V339.783V339.7V339.617V339.535V339.451V339.368V339.286V339.202V339.12V339.037V338.955V338.872V338.79V338.708V338.626V338.544V338.46V338.378V338.298V338.215V338.133V338.051V337.969V337.889V337.807V337.726V337.645V337.563V337.483V337.402V337.321V337.241V337.16V337.079V336.999V336.92V336.839V336.76V336.68V336.6V336.52V336.441V336.362V336.282V336.203V336.125V336.046V335.968V335.889V335.811V335.733V335.655V335.577V335.499V335.423V335.345V335.268V335.19V335.114V335.037V334.961V334.884V334.809V334.732V334.657V334.581V334.505V334.43V334.355V334.28V334.206V334.131V334.057V333.983V333.909V333.836V333.762V333.688V333.615V333.542V333.469V333.397V333.324V333.253V333.181V333.11V333.039V332.967V332.896V332.825V332.754V332.684V332.615V332.545V332.475V332.406V332.337V332.268V332.199V332.131V332.062V331.995V331.927V331.86V331.793V331.726V331.659V331.594V331.527V331.461V331.395V331.331V331.265V331.201V331.137V331.073V331.008V330.946V330.881V330.818V330.756V330.694V330.631V330.57V330.508V330.447V330.386V330.325V330.265V330.205V330.144V330.086V330.027V329.968V329.909V329.851V329.793V329.736V329.678V329.622V329.565V329.509V329.453V329.397V329.342V329.287V329.233V329.178V329.125V329.071V329.018V328.965V328.913V328.861V328.809V328.757V328.706V328.656V328.605V328.555V328.505V328.456V328.407V328.359V328.311V328.263V328.216V328.169V328.123V328.076V328.03V327.985V327.939V327.894V327.851V327.807V327.763V327.719V327.677V327.635V327.594V327.551V327.51V327.469V327.43V327.39V327.35V327.312V327.272V327.234V327.197V327.16V327.123V327.086V327.051V327.015V326.98V326.944V326.91V326.877V326.843V326.81V326.777V326.746V326.715V326.683V326.653V326.623V326.593V326.563V326.534V326.507V326.478V326.451V326.423V326.397V326.371V326.345V326.321V326.296V326.272V326.248V326.225V326.203V326.181V326.16V326.138V326.117V326.098V326.078V326.058V326.041V326.021V326.004V325.987V325.971V325.955V325.939V325.924V325.909V325.896V325.882V325.868V325.856V325.845V325.833V325.822V325.812V325.803V325.793V325.785V325.777V325.769V325.762V325.755V325.749V325.744V325.74V325.736V325.732V325.729V325.726V325.722V325.721C560.023 324.816 559.495 323.918 558.548 323.074C557.601 322.232 556.244 321.453 554.605 320.788Z" fill="black"/>
<path d="M551.084 332.214V332.527M551.084 332.214L533.115 355.771V355.774V355.793M551.084 332.214L533.115 355.77C533.114 352.631 533.113 345.558 533.159 339.044C533.184 335.775 533.219 332.648 533.274 330.227C533.301 329.017 533.332 327.982 533.369 327.196C533.406 326.418 533.448 325.875 533.499 325.647C533.541 325.185 533.858 324.784 534.357 324.447C534.858 324.108 535.554 323.822 536.375 323.591C538.019 323.13 540.179 322.883 542.333 322.862C544.486 322.843 546.636 323.051 548.261 323.505C549.073 323.73 549.757 324.02 550.245 324.376C550.731 324.73 551.028 325.158 551.049 325.661C551.052 325.68 551.054 325.714 551.056 325.756C551.058 325.805 551.06 325.87 551.061 325.948C551.065 326.105 551.068 326.318 551.071 326.574C551.076 327.082 551.079 327.758 551.082 328.471C551.085 329.652 551.085 330.94 551.085 331.765C551.084 331.936 551.084 332.088 551.084 332.214ZM551.084 332.527H551.052C551.065 332.527 551.072 332.527 551.078 332.527C551.084 332.527 551.084 332.527 551.084 332.527ZM551.084 332.527V332.531V332.542V332.589V332.766V333.447V335.901V343.567V357.049C551.084 357.492 550.781 357.867 550.286 358.176C549.789 358.486 549.085 358.743 548.246 358.947C546.568 359.355 544.333 359.559 542.101 359.559C539.868 359.559 537.635 359.355 535.955 358.947C535.116 358.743 534.412 358.486 533.915 358.176C533.42 357.865 533.117 357.492 533.117 357.049L533.115 355.846V355.839V355.838V355.837V355.831V355.805V355.801M533.115 355.801C533.115 355.798 533.115 355.796 533.115 355.793M533.115 355.801V355.793M524.244 357.049C524.244 358.434 524.873 359.536 525.948 360.413C527.024 361.291 528.549 361.942 530.331 362.416C533.896 363.365 538.47 363.601 542.502 363.56C546.41 363.521 550.799 363.442 554.21 362.591C555.916 362.167 557.369 361.551 558.397 360.657C559.421 359.766 560.023 358.595 560.023 357.049V357.012V356.975V356.938V356.9V356.861V356.822V356.783V356.743V356.702V356.662V356.621V356.579V356.537V356.496V356.452V356.409V356.366V356.322V356.277V356.233V356.188V356.141V356.096V356.05V356.003V355.956V355.909V355.861V355.813V355.764V355.715V355.666V355.617V355.566V355.515V355.465V355.414V355.362V355.31V355.258V355.206V355.153V355.1V355.047V354.993V354.939V354.884V354.829V354.773V354.718V354.662V354.606V354.549V354.493V354.435V354.378V354.319V354.262V354.203V354.144V354.085V354.025V353.967V353.906V353.845V353.785V353.723V353.663V353.602V353.539V353.477V353.414V353.351V353.289V353.226V353.161V353.098V353.034V352.97V352.904V352.84V352.774V352.709V352.643V352.578V352.511V352.444V352.377V352.31V352.243V352.176V352.107V352.039V351.971V351.902V351.834V351.764V351.695V351.625V351.555V351.485V351.416V351.345V351.273V351.202V351.131V351.06V350.989V350.917V350.844V350.773V350.701V350.627V350.554V350.482V350.408V350.334V350.26V350.187V350.113V350.039V349.964V349.889V349.815V349.74V349.664V349.588V349.513V349.438V349.361V349.284V349.209V349.133V349.056V348.978V348.902V348.825V348.747V348.669V348.591V348.515V348.437V348.358V348.28V348.202V348.122V348.045V347.965V347.886V347.807V347.727V347.648V347.569V347.489V347.41V347.33V347.25V347.17V347.089V347.008V346.929V346.848V346.766V346.686V346.605V346.524V346.442V346.362V346.28V346.199V346.117V346.035V345.954V345.872V345.79V345.708V345.626V345.544V345.461V345.379V345.297V345.215V345.131V345.049V344.966V344.884V344.801V344.717V344.635V344.552V344.468V344.385V344.302V344.22V344.136V344.053V343.969V343.886V343.803V343.718V343.634V343.551V343.468V343.384V343.301V343.216V343.133V343.049V342.965V342.881V342.798V342.713V342.63V342.546V342.462V342.378V342.295V342.21V342.127V342.042V341.958V341.875V341.79V341.707V341.624V341.539V341.455V341.371V341.287V341.204V341.12V341.036V340.952V340.869V340.784V340.701V340.617V340.534V340.451V340.367V340.284V340.2V340.117V340.034V339.95V339.867V339.783V339.7V339.617V339.535V339.451V339.368V339.286V339.202V339.12V339.037V338.955V338.872V338.79V338.708V338.626V338.544V338.46V338.378V338.298V338.215V338.133V338.051V337.969V337.889V337.807V337.726V337.645V337.563V337.483V337.402V337.321V337.241V337.16V337.079V336.999V336.92V336.839V336.76V336.68V336.6V336.52V336.441V336.362V336.282V336.203V336.125V336.046V335.968V335.889V335.811V335.733V335.655V335.577V335.499V335.423V335.345V335.268V335.19V335.114V335.037V334.961V334.884V334.809V334.732V334.657V334.581V334.505V334.43V334.355V334.28V334.206V334.131V334.057V333.983V333.909V333.836V333.762V333.688V333.615V333.542V333.469V333.397V333.324V333.253V333.181V333.11V333.039V332.967V332.896V332.825V332.754V332.684V332.615V332.545V332.475V332.406V332.337V332.268V332.199V332.131V332.062V331.995V331.927V331.86V331.793V331.726V331.659V331.594V331.527V331.461V331.395V331.331V331.265V331.201V331.137V331.073V331.008V330.946V330.881V330.818V330.756V330.694V330.631V330.57V330.508V330.447V330.386V330.325V330.265V330.205V330.144V330.086V330.027V329.968V329.909V329.851V329.793V329.736V329.678V329.622V329.565V329.509V329.453V329.397V329.342V329.287V329.233V329.178V329.125V329.071V329.018V328.965V328.913V328.861V328.809V328.757V328.706V328.656V328.605V328.555V328.505V328.456V328.407V328.359V328.311V328.263V328.216V328.169V328.123V328.076V328.03V327.985V327.939V327.894V327.851V327.807V327.763V327.719V327.677V327.635V327.594V327.551V327.51V327.469V327.43V327.39V327.35V327.312V327.272V327.234V327.197V327.16V327.123V327.086V327.051V327.015V326.98V326.944V326.91V326.877V326.843V326.81V326.777V326.746V326.715V326.683V326.653V326.623V326.593V326.563V326.534V326.507V326.478V326.451V326.423V326.397V326.371V326.345V326.321V326.296V326.272V326.248V326.225V326.203V326.181V326.16V326.138V326.117V326.098V326.078V326.058V326.041V326.021V326.004V325.987V325.971V325.955V325.939V325.924V325.909V325.896V325.882V325.868V325.856V325.845V325.833V325.822V325.812V325.803V325.793V325.785V325.777V325.769V325.762V325.755V325.749V325.744V325.74V325.736V325.732V325.729V325.726V325.722V325.721C560.023 324.816 559.495 323.918 558.548 323.074C557.601 322.232 556.244 321.453 554.605 320.788C551.327 319.461 546.939 318.594 542.502 318.589C537.977 318.583 533.403 319.456 529.964 320.783C528.243 321.446 526.81 322.222 525.807 323.056C524.804 323.893 524.244 324.777 524.244 325.658M524.244 357.049C524.244 354.233 524.244 346.385 524.244 339.241M524.244 357.049V339.241M524.244 339.241V329.771V326.776V325.949V325.732V325.677V325.663V325.659V325.658M524.244 325.658C524.244 325.658 524.244 325.658 524.177 325.658H524.244Z" stroke="black" stroke-width="0.1"/>
<path d="M368.08 363.633V318.521H374.987L399.161 356.114L398.471 318.521H403.996V363.633H397.089L372.915 326.039L373.606 363.633H368.08Z" fill="black" stroke="black" stroke-width="0.1"/>
<path d="M318.351 317.154H312.825V362.266H318.351V341.76H341.834V362.266H347.36V317.154H341.834V336.292H318.351V317.154Z" fill="black" stroke="black" stroke-width="0.1"/>
<path d="M292.982 361.365V356.58L290.219 357.264C285.583 358.411 281.566 358.852 278.22 357.965C273.946 356.833 271.331 355.249 269.242 351.813C267.153 348.378 266.736 343.85 266.736 341.543C266.736 339.235 266.427 335.979 267.427 333.341C269.499 327.872 270.88 325.822 274.334 324.455C279.814 322.285 280.118 322.386 284.004 322.404C287.34 322.419 292.982 324.455 292.982 324.455L295.055 320.354L294.105 319.688C292.704 318.705 288.292 317.483 284.436 317.282C277.787 316.936 275.438 317.148 271.571 319.688C265.355 323.771 263.489 326.309 261.902 331.974C259.308 341.226 259.943 348.023 263.715 353.864C268.117 360.681 271.848 362.308 279.168 363.415C286.075 364.46 292.982 361.365 292.982 361.365Z" fill="black" stroke="black" stroke-width="0.1"/>
<path d="M220.273 362.266V317.154H245.828V322.622H226.49V336.292H244.448V341.077H226.49V357.481H245.828V362.266H220.273Z" fill="black" stroke="black" stroke-width="0.1"/>
<path d="M666.457 363.633V318.521H692.013V323.989H672.672V337.659H690.631V342.444H672.672V358.848H692.013V363.633H666.457Z" fill="black" stroke="black" stroke-width="0.1"/>
<path d="M205.769 318.521H171.925V323.989H185.739V363.633H191.955V323.989H205.769V318.521Z" fill="black" stroke="black" stroke-width="0.1"/>
</svg>
